<?xml version="1.0" encoding="UTF-8" standalone="no"?>
<svg
   xmlns:dc="http://purl.org/dc/elements/1.1/"
   xmlns:cc="http://creativecommons.org/ns#"
   xmlns:rdf="http://www.w3.org/1999/02/22-rdf-syntax-ns#"
   xmlns:svg="http://www.w3.org/2000/svg"
   xmlns="http://www.w3.org/2000/svg"
   id="svg927"
   version="1.1"
   viewBox="0 0 24.009403 24.716612"
   height="24.716612mm"
   width="24.009403mm">
  <defs
     id="defs921" />
  <metadata
     id="metadata924">
    <rdf:RDF>
      <cc:Work
         rdf:about="">
        <dc:format>image/svg+xml</dc:format>
        <dc:type
           rdf:resource="http://purl.org/dc/dcmitype/StillImage" />
        <dc:title></dc:title>
      </cc:Work>
    </rdf:RDF>
  </metadata>
  <g
     transform="translate(-88.536998,-36.689514)"
     id="layer1">
    <path
       style="fill:#cc1e26;fill-opacity:1;fill-rule:nonzero;stroke:#cc1e26;stroke-width:0.7826376;stroke-miterlimit:4;stroke-dasharray:none;stroke-opacity:1"
       d="m 91.615776,46.01803 c 0.0011,-1.3e-4 0.0014,-1.7e-4 0.0014,-1.7e-4 0,0 -0.0011,1.2e-4 -0.0014,1.7e-4 m 0.0014,-1.7e-4 0.0014,7.2e-4 z m 0.0014,7.2e-4 c 0.0011,-1.2e-4 0.0011,10e-4 0.0011,10e-4 0,0 -1.23e-4,-10e-4 -0.0011,-10e-4 m 10.372734,14.89435 c -1.22034,0.16151 -2.468062,0.1316 -3.712139,-0.0938 -3.065181,-0.55582 -5.75472,-2.25335 -7.574087,-4.78098 -0.240245,-0.28962 -2.203235,-2.80237 -1.692377,-7.01679 0.247675,-2.04644 0.814045,-3.37135 1.682577,-3.93889 0.555682,-0.36268 1.045358,-0.30043 1.223169,-0.25941 1.02991,0.17961 1.455141,1.37397 1.595406,1.76953 0.284476,0.80024 0.473195,1.80063 0.656191,2.76812 0.151028,0.79867 0.293465,1.55313 0.477002,2.14077 0.214665,0.6879 0.390722,0.82462 0.421435,0.84391 0.0014,-1.6e-4 0.0028,-3.2e-4 0.004,-0.001 0.06113,-0.0103 0.195323,-0.1536 0.308568,-0.62117 0.130549,-0.53924 0.18071,-1.28623 0.228607,-2.00889 0.05213,-0.77885 0.105593,-1.58397 0.264044,-2.22373 0.227107,-0.92013 0.674638,-1.43058 1.329351,-1.51723 0.797807,-0.10559 1.298981,0.48464 1.578427,0.99777 0.274905,0.50481 0.474941,1.15481 0.668746,1.78367 0.14011,0.45671 0.272691,0.88764 0.421418,1.22783 0.147792,0.33825 0.252022,0.44602 0.289062,0.47683 0.0813,-0.0136 0.12453,-0.0398 0.17819,-0.16369 0.088,-0.20188 0.1277,-0.52444 0.16973,-0.86584 0.0628,-0.51104 0.1346,-1.08988 0.4075,-1.58615 0.34817,-0.63328 0.93804,-0.98675 1.75447,-1.05017 0.98094,-0.0763 1.31025,0.009 2.28884,0.26299 0.58033,0.15052 1.45799,0.37844 2.91844,0.68719 1.44277,0.3049 2.43209,0.21929 2.78658,-0.24176 0.42493,-0.55141 0.0369,-1.77128 -0.21669,-2.27548 -0.009,-0.018 -0.017,-0.0355 -0.0244,-0.0545 -0.65323,-1.68203 -1.72776,-3.18467 -3.10797,-4.34535 -1.42202,-1.19635 -3.14645,-2.00516 -4.98584,-2.33862 -2.0245,-0.36733 -4.094506,-0.14968 -5.987247,0.62896 -1.844583,0.75854 -3.437911,2.0092 -4.60961,3.61752 -0.200438,0.27583 -0.585939,0.33647 -0.861184,0.13525 -0.275741,-0.19977 -0.335795,-0.58603 -0.135957,-0.86109 1.30591,-1.79297 3.082132,-3.18735 5.137133,-4.03211 2.111583,-0.86873 4.419985,-1.11175 6.676685,-0.70235 2.05122,0.37203 3.9741,1.27409 5.56003,2.60877 1.53096,1.2877 2.72446,2.95247 3.45333,4.81677 0.16362,0.33341 1.05244,2.29056 0.0791,3.55532 -0.67861,0.88168 -2.03084,1.11559 -4.01907,0.69538 -1.48734,-0.3148 -2.38133,-0.54674 -2.973,-0.69988 -0.93951,-0.24377 -1.10882,-0.28798 -1.88372,-0.22731 -0.77559,0.0608 -0.89935,0.47478 -1.03348,1.55774 -0.0511,0.41333 -0.10371,0.84061 -0.26329,1.20718 -0.28336,0.65081 -0.79303,0.84738 -1.17101,0.8974 -0.399577,0.0529 -0.970992,-0.0665 -1.426816,-0.9368 -0.238062,-0.45473 -0.422265,-1.05258 -0.600502,-1.6313 -0.17514,-0.57089 -0.356832,-1.16014 -0.572682,-1.55601 -0.100648,-0.18447 -0.240877,-0.37744 -0.333351,-0.3652 -0.07357,0.01 -0.196938,0.19845 -0.293511,0.58964 -0.132521,0.53469 -0.182329,1.28439 -0.230544,2.00984 -0.0519,0.77538 -0.105226,1.57636 -0.261291,2.21855 -0.221834,0.91326 -0.657141,1.43307 -1.293432,1.54476 -0.421375,0.075 -0.827155,-0.0643 -1.142912,-0.38993 -0.218662,-0.22516 -0.403225,-0.5455 -0.565044,-0.97942 -0.261578,-0.70505 -0.435614,-1.62566 -0.620176,-2.59982 -0.174128,-0.92128 -0.353801,-1.87411 -0.606468,-2.58446 -0.294481,-0.82912 -0.552704,-0.95359 -0.650099,-0.96817 -0.0188,-0.002 -0.03729,-0.007 -0.05572,-0.0112 -0.02646,-0.003 -0.150041,-0.008 -0.32172,0.12225 -0.295991,0.22323 -0.830978,0.91352 -1.086993,3.0215 -0.467092,3.85493 1.402832,6.06407 1.421487,6.08564 0.01214,0.0142 0.02445,0.029 0.03545,0.0448 1.631586,2.2764 4.04882,3.8053 6.805793,4.30508 2.322151,0.42134 4.658991,0.0818 6.757841,-0.98163 1.06971,-0.54197 2.0421,-1.26405 2.87221,-2.12183 0.80013,-0.83526 1.46222,-1.7951 1.95791,-2.83938 l 0.88326,-1.75597 c 0.13077,-0.30919 0.43873,-0.77485 0.7504,-0.65127 0.31176,0.12425 0.51275,0.65621 0.39569,0.97045 -0.11756,0.31568 -0.52067,1.26209 -0.66457,1.56546 l -0.10296,0.24439 c -0.005,0.013 -0.0109,0.0262 -0.0175,0.0387 -0.52687,1.04221 -1.44926,2.3776 -2.25633,3.22271 -0.30356,0.32176 -0.62514,0.62667 -0.96425,0.9133 -0.0228,0.0195 -0.0473,0.0371 -0.072,0.0528 -0.68392,0.56646 -1.42995,1.05804 -2.22417,1.46054 -1.21646,0.61634 -2.50432,1.0148 -3.82388,1.18944"
       id="path920" />
  </g>
</svg>
