<?xml version="1.0" encoding="UTF-8" standalone="no"?>
<svg
   xmlns:dc="http://purl.org/dc/elements/1.1/"
   xmlns:cc="http://creativecommons.org/ns#"
   xmlns:rdf="http://www.w3.org/1999/02/22-rdf-syntax-ns#"
   xmlns:svg="http://www.w3.org/2000/svg"
   xmlns="http://www.w3.org/2000/svg"
   xmlns:sodipodi="http://sodipodi.sourceforge.net/DTD/sodipodi-0.dtd"
   xmlns:inkscape="http://www.inkscape.org/namespaces/inkscape"
   width="383.18524pt"
   height="70.063934pt"
   viewBox="0 0 383.18524 70.063934"
   version="1.2"
   id="svg923"
   sodipodi:docname="KRIPTOKUNA.svg"
   inkscape:export-filename="/home/crash/Documents/kriptokuna_v2.pdf.png"
   inkscape:export-xdpi="205.52657"
   inkscape:export-ydpi="205.52657"
   inkscape:version="0.92.3 (3ce5693, 2018-03-11)">
  <metadata
     id="metadata929">
    <rdf:RDF>
      <cc:Work
         rdf:about="">
        <dc:format>image/svg+xml</dc:format>
        <dc:type
           rdf:resource="http://purl.org/dc/dcmitype/StillImage" />
      </cc:Work>
    </rdf:RDF>
  </metadata>
  <defs
     id="defs927" />
  <sodipodi:namedview
     pagecolor="#ffffff"
     bordercolor="#666666"
     borderopacity="1"
     objecttolerance="10"
     gridtolerance="10"
     guidetolerance="10"
     inkscape:pageopacity="0"
     inkscape:pageshadow="2"
     inkscape:window-width="1600"
     inkscape:window-height="837"
     id="namedview925"
     showgrid="false"
     inkscape:zoom="1.8101934"
     inkscape:cx="282.16199"
     inkscape:cy="-26.016538"
     inkscape:window-x="0"
     inkscape:window-y="30"
     inkscape:window-maximized="1"
     inkscape:current-layer="svg923" />
  <path
     inkscape:connector-curvature="0"
     id="path900"
     d="m 94.036806,40.026612 c -0.40625,-0.5625 -0.60547,-1.25 -0.60547,-2.05469 0,-1.20703 0.50391,-2.17578 1.51172,-2.89844 h -0.0625 c 0.80469,-0.5625 1.60938,-0.84765 2.41406,-0.84765 0.76563,0 1.41016,0.44531 1.9336,1.33203 l 11.656254,17.03125 -0.0586,-0.0625 c 0.35938,0.5625 0.54297,1.16797 0.54297,1.8125 0,1.04687 -0.52343,1.97265 -1.57031,2.77734 h 0.0586 c -0.4414,0.28125 -0.86328,0.50391 -1.26562,0.66406 -0.40625,0.16016 -0.76563,0.24219 -1.08984,0.24219 -0.32032,0 -0.65235,-0.12109 -0.9961,-0.36328 -0.34375,-0.24219 -0.67578,-0.54297 -0.99609,-0.90625 z m 8.574224,-28.6875 c 0.60547,-0.72266 1.28906,-1.08594 2.05469,-1.08594 0.84375,0 1.71094,0.38281 2.59375,1.14453 0.44531,0.44531 0.8164,0.88672 1.11719,1.33203 0.30468,0.44141 0.45312,0.88281 0.45312,1.32813 0,0.72265 -0.26172,1.34765 -0.78516,1.87109 l -8.089844,9.42188 -15.76172,18.53906 v 12.14062 c 0,1.9336 -1.21094,2.89844 -3.625,2.89844 -2.375,0 -3.5625,-0.96484 -3.5625,-2.89844 v -42.8164 c 0,-1.9336 1.1875,-2.90235 3.5625,-2.90235 2.41406,0 3.625,0.96875 3.625,2.90235 v 19.74609 z m 0,0"
     style="fill:#211e1e;fill-opacity:1;fill-rule:nonzero;stroke:none" />
  <path
     inkscape:connector-curvature="0"
     id="path902"
     d="m 122.35712,56.030512 c 0,1.9336 -1.10546,2.89844 -3.32031,2.89844 -2.29297,0 -3.4414,-0.96484 -3.4414,-2.89844 v -25.0039 c 0,-3.30078 0.98437,-5.59375 2.95703,-6.88282 1.97265,-1.28906 4.24609,-1.93359 6.82422,-1.93359 h 6.88671 c 1.48829,0 2.23438,0.94531 2.23438,2.83984 0.0781,1.89063 -0.66406,2.83594 -2.23438,2.83594 h -6.40234 c -1.44922,0 -2.39453,0.28125 -2.83594,0.84766 -0.44531,0.5625 -0.66797,1.34765 -0.66797,2.35547 z m 0,0"
     style="fill:#211e1e;fill-opacity:1;fill-rule:nonzero;stroke:none" />
  <path
     inkscape:connector-curvature="0"
     id="path904"
     d="m 146.45478,56.030512 c 0,1.9336 -1.10937,2.89844 -3.32031,2.89844 -2.25781,0 -3.38281,-0.96484 -3.38281,-2.89844 v -31.16406 c 0,-1.93359 1.125,-2.89844 3.38281,-2.89844 2.21094,0 3.32031,0.96485 3.32031,2.89844 z m 1.26953,-41.67187 c 0,1.28906 -0.44531,2.375 -1.33203,3.26172 -0.88281,0.88672 -1.97266,1.32812 -3.25781,1.32812 -1.28906,0 -2.38672,-0.4414 -3.29297,-1.32812 -0.90625,-0.88672 -1.35938,-1.97266 -1.35938,-3.26172 0,-1.32813 0.45313,-2.4336 1.35938,-3.32031 0.90625,-0.88672 2.00391,-1.32813 3.29297,-1.32813 1.28515,0 2.375,0.44141 3.25781,1.32813 0.88672,0.88671 1.33203,1.99218 1.33203,3.32031"
     style="fill:#211e1e;fill-opacity:1;fill-rule:nonzero;stroke:none" />
  <path
     inkscape:connector-curvature="0"
     id="path906"
     d="m 167.04853,58.565672 c -1.44922,0 -2.21484,-0.94531 -2.29687,-2.83984 0,-1.89063 0.76562,-2.83594 2.29687,-2.83594 h 6.10156 c 1.48828,0 2.54297,-0.42578 3.16797,-1.26953 0.625,-0.84375 0.9375,-1.75 0.9375,-2.71875 v -17.02735 c 0,-1.00781 -0.3125,-1.94531 -0.9375,-2.80859 -0.625,-0.86719 -1.70312,-1.25781 -3.23047,-1.17969 h -11.59765 v 36.29688 c 0,1.89062 -1.10547,2.83593 -3.32032,2.83593 -2.21484,0 -3.32031,-0.96484 -3.32031,-2.89843 v -38.34766 c 0,-1.41016 0.36328,-2.35547 1.08594,-2.83984 0.72656,-0.48047 1.60937,-0.72266 2.66016,-0.72266 h 15.64062 c 1.04297,0 2.10156,0.17969 3.16797,0.54297 1.06641,0.36328 2.16406,0.86719 3.29297,1.51172 0.96484,0.68359 1.74219,1.64062 2.32422,2.86719 0.58593,1.22656 0.875,2.66796 0.875,4.3164 v 17.87891 c 0,3.30078 -1.06641,5.65625 -3.19922,7.0625 -2.25391,1.44922 -4.41016,2.17578 -6.46094,2.17578 z m 0,0"
     style="fill:#211e1e;fill-opacity:1;fill-rule:nonzero;stroke:none" />
  <path
     inkscape:connector-curvature="0"
     id="path908"
     d="m 199.35712,27.885982 v 21.98438 c 0,1.04687 0.22266,1.85156 0.66407,2.41406 0.4414,0.56641 1.39062,0.84766 2.83984,0.84766 h 1.57031 c 1.57032,0 2.3125,0.92578 2.23438,2.77734 0,1.89062 -0.7461,2.83594 -2.23438,2.83594 h -1.99609 c -1.28516,0 -2.49609,-0.17188 -3.62109,-0.51172 -1.12891,-0.34375 -2.21485,-0.83594 -3.26172,-1.48047 v 0.0625 c -1.97266,-1.28906 -2.96094,-3.58594 -2.96094,-6.88672 v -22.04297 h -2.35156 c -1.44922,0 -2.21485,-0.94531 -2.29688,-2.83594 0,-1.89453 0.76563,-2.83984 2.29688,-2.83984 h 2.35156 v -6.46094 c 0,-1.93359 1.14844,-2.89843 3.44531,-2.89843 2.21094,0 3.32031,0.96484 3.32031,2.89843 v 6.46094 h 5.01172 c 1.57032,0 2.31641,0.94531 2.23438,2.83984 0,1.89063 -0.7461,2.83594 -2.23438,2.83594 z m 0,0"
     style="fill:#211e1e;fill-opacity:1;fill-rule:nonzero;stroke:none" />
  <path
     inkscape:connector-curvature="0"
     id="path910"
     d="m 230.154,52.889892 c 1.48828,0 2.54687,-0.42578 3.17187,-1.26953 0.625,-0.84375 0.9375,-1.75 0.9375,-2.71485 v -17.03125 c 0,-1.00781 -0.3125,-1.92187 -0.9375,-2.75 -0.625,-0.82422 -1.68359,-1.23828 -3.17187,-1.23828 h -7.48828 c -1.48828,0 -2.54688,0.41406 -3.16797,1.23828 -0.625,0.82813 -0.9375,1.74219 -0.9375,2.75 v 17.03125 c 0,0.96485 0.3125,1.8711 0.9375,2.71485 0.62109,0.84375 1.67969,1.26953 3.16797,1.26953 z m 1.08984,-30.67969 c 1.04688,0 2.1211,0.22266 3.23047,0.66406 1.10547,0.44141 2.1836,1.00782 3.23047,1.69141 h -0.0625 c 1.04688,0.76562 1.85547,1.76172 2.41797,2.98828 0.5625,1.23047 0.84375,2.64844 0.84375,4.25781 v 17.15235 c 0,3.30078 -1.08594,5.73828 -3.26172,7.30468 -2.13281,1.53125 -4.26562,2.29688 -6.39844,2.29688 h -9.66406 c -1.04687,0 -2.11328,-0.17969 -3.19922,-0.54297 -1.08594,-0.36328 -2.15625,-0.94531 -3.20312,-1.75391 -2.17188,-1.52734 -3.25782,-3.96484 -3.25782,-7.30468 v -17.15235 c 0,-1.60937 0.28125,-3.02734 0.84375,-4.25781 0.5625,-1.22656 1.36719,-2.22266 2.41407,-2.98828 h -0.0586 c 1.00391,-0.68359 2.07032,-1.25 3.19922,-1.69141 1.12891,-0.4414 2.21485,-0.66406 3.26172,-0.66406 z m 0,0"
     style="fill:#211e1e;fill-opacity:1;fill-rule:nonzero;stroke:none" />
  <path
     inkscape:connector-curvature="0"
     id="path912"
     d="m 275.32978,54.518792 c 0.27734,0.52344 0.42188,1.06641 0.42188,1.63282 0,1.04687 -0.60547,1.83203 -1.8125,2.35156 -0.80469,0.48437 -1.53125,0.72656 -2.17579,0.72656 -0.4414,0 -0.86718,-0.14844 -1.26562,-0.45312 -0.40234,-0.30078 -0.72656,-0.67188 -0.96875,-1.11719 l -6.03906,-11.65625 c -0.35938,-0.60156 -0.54297,-1.20703 -0.54297,-1.8125 0,-1.00391 0.52344,-1.85156 1.57031,-2.53516 0.28125,-0.19922 0.57422,-0.38281 0.875,-0.54297 0.30078,-0.16015 0.63672,-0.28125 0.99609,-0.36328 0.44532,-0.0781 0.86719,0 1.26954,0.24219 0.40234,0.24219 0.74609,0.5625 1.02734,0.96484 z m -20.17187,-6.03906 v 7.67188 c 0,1.89062 -1.10938,2.83593 -3.32032,2.83593 -2.21484,0 -3.32422,-0.94531 -3.32422,-2.83593 v -43 c 0,-1.9336 1.10938,-2.89844 3.32422,-2.89844 2.21094,0 3.32032,0.96484 3.32032,2.89844 v 25.60547 c 1.0039,-1.20704 2.12109,-2.50782 3.35156,-3.89454 1.22656,-1.39062 2.45703,-2.79687 3.68359,-4.22656 1.22656,-1.42969 2.44531,-2.83984 3.65235,-4.23047 1.21093,-1.38672 2.33593,-2.6875 3.38281,-3.89453 v 0.0625 c 0.72656,-0.84765 1.44922,-1.26953 2.17187,-1.26953 0.40625,0 0.79688,0.0898 1.17969,0.27344 0.38281,0.17969 0.79688,0.42969 1.23828,0.7539 h -0.0586 c 0.96484,0.80469 1.44922,1.60938 1.44922,2.41407 0,0.28125 -0.0625,0.59375 -0.1836,0.9375 -0.12109,0.34375 -0.32031,0.63281 -0.60156,0.875 z m 0,0"
     style="fill:#211e1e;fill-opacity:1;fill-rule:nonzero;stroke:none" />
  <path
     inkscape:connector-curvature="0"
     id="path914"
     d="m 309.75166,48.964112 c 0,1.60937 -0.28125,3.03906 -0.84766,4.28515 -0.5625,1.25 -1.36719,2.25782 -2.41406,3.02344 h 0.0625 c -1.00782,0.68359 -2.07422,1.23438 -3.20313,1.66016 -1.1289,0.42187 -2.21484,0.63281 -3.26172,0.63281 h -9.72265 c -1.00782,0 -2.08203,-0.21094 -3.23047,-0.63281 -1.14844,-0.42578 -2.22656,-0.97657 -3.23047,-1.66016 h 0.0586 c -1.04687,-0.76562 -1.85156,-1.77344 -2.41406,-3.02344 -0.56641,-1.24609 -0.84766,-2.67578 -0.84766,-4.28515 v -24.21875 c 0,-1.92969 1.10938,-2.89844 3.32422,-2.89844 2.21094,0 3.32032,0.96875 3.32032,2.89844 v 23.73437 c 0,1.12891 0.28125,2.11328 0.84375,2.96094 0.52343,0.96484 1.61328,1.44922 3.26171,1.44922 h 7.55079 c 1.60937,0 2.67578,-0.48438 3.19921,-1.44922 l -0.0586,0.0586 c 0.64063,-0.96484 0.96484,-1.97265 0.96484,-3.01953 v -23.73437 c 0,-1.92969 1.10938,-2.89844 3.32422,-2.89844 2.21094,0 3.32032,0.96875 3.32032,2.89844 z m 0,0"
     style="fill:#211e1e;fill-opacity:1;fill-rule:nonzero;stroke:none" />
  <path
     inkscape:connector-curvature="0"
     id="path916"
     d="m 323.94306,56.030512 c 0,1.9336 -1.10937,2.89844 -3.32031,2.89844 -2.21484,0 -3.32422,-0.96484 -3.32422,-2.89844 v -24.27734 c 0,-1.65234 0.26172,-3.08203 0.78516,-4.28906 0.52343,-1.20703 1.34765,-2.19532 2.47656,-2.95703 2.13281,-1.53125 4.26953,-2.29688 6.40234,-2.29688 h 9.72266 c 2.05469,0 4.1875,0.76563 6.40234,2.29688 2.17188,1.52734 3.25782,3.94531 3.25782,7.24609 v 24.27734 c 0,1.9336 -1.10547,2.89844 -3.32032,2.89844 -2.21484,0 -3.32031,-0.96484 -3.32031,-2.89844 v -23.73437 c 0,-1.04688 -0.32422,-2.05469 -0.96484,-3.01953 l 0.0586,0.0586 c -0.52344,-0.96484 -1.58984,-1.44922 -3.19922,-1.44922 h -7.55078 c -1.65234,0 -2.73828,0.48438 -3.26172,1.44922 -0.5625,0.84766 -0.84375,1.83203 -0.84375,2.96094 z m 0,0"
     style="fill:#211e1e;fill-opacity:1;fill-rule:nonzero;stroke:none" />
  <path
     inkscape:connector-curvature="0"
     id="path918"
     d="m 363.25556,58.565672 c -1.24609,0 -2.4375,-0.17188 -3.5625,-0.51172 -1.1289,-0.34375 -2.21484,-0.83594 -3.26172,-1.48047 v 0.0586 c -1.97265,-1.2461 -2.95703,-3.54297 -2.95703,-6.88282 v -2.96093 c 0,-1.64844 0.28906,-3.08985 0.875,-4.31641 0.58203,-1.22656 1.39844,-2.20703 2.44531,-2.92969 h -0.0586 c 1.00391,-0.68359 2.07031,-1.19922 3.19922,-1.53906 1.125,-0.34375 2.21484,-0.51563 3.26172,-0.51563 h 13.34375 v -5.61328 c 0,-1.00781 -0.3086,-1.92578 -0.9336,-2.75 -0.625,-0.82422 -1.68359,-1.23828 -3.17187,-1.23828 h -7.06641 c -1.52734,0 -2.58593,0.375 -3.17187,1.11719 -0.58203,0.74609 -0.875,1.62109 -0.875,2.62891 v 0.48046 c 0,2.09766 -1.125,3.14063 -3.37891,3.14063 -2.25781,0 -3.38281,-1.04297 -3.38281,-3.14063 v -0.54296 c 0,-1.64844 0.29297,-3.03907 0.875,-4.16797 0.58203,-1.125 1.37891,-2.07032 2.38672,-2.83594 h -0.0625 c 1.04687,-0.68359 2.14453,-1.25 3.29297,-1.69141 1.14453,-0.4414 2.24218,-0.66406 3.29297,-0.66406 h 9.17968 c 1.00391,0 2.08203,0.22266 3.22657,0.66406 1.14843,0.44141 2.22656,1.00782 3.23437,1.69141 h -0.0625 c 1.04688,0.76562 1.85156,1.76172 2.41797,2.98828 0.5625,1.23047 0.84375,2.64844 0.84375,4.25781 v 24.21875 c 0,1.92969 -1.10938,2.89844 -3.32031,2.89844 -0.44532,0 -0.85547,-0.0234 -1.23828,-0.0625 -0.38282,-0.0391 -0.72657,-0.14844 -1.02735,-0.33203 -0.30078,-0.17969 -0.54297,-0.44141 -0.72656,-0.78516 -0.17969,-0.33984 -0.26953,-0.79297 -0.26953,-1.35937 l -0.0625,-13.22266 H 364.3454 c -0.88672,0 -1.57032,0.0977 -2.05469,0.30078 -0.48438,0.20313 -0.86719,0.52344 -1.14844,0.96485 -0.32422,0.6875 -0.55469,1.21875 -0.69531,1.60156 -0.14063,0.38281 -0.21094,0.81641 -0.21094,1.30078 v 2.35156 c 0,1.04688 0.3125,1.84375 0.9375,2.38672 0.62109,0.54297 1.69922,0.81641 3.23047,0.81641 h 6.76172 c 1.49219,0 2.23828,0.94531 2.23828,2.83594 0,0.80859 -0.18359,1.48046 -0.54688,2.02343 -0.36328,0.54688 -0.92578,0.81641 -1.6914,0.81641 z m 0,0"
     style="fill:#211e1e;fill-opacity:1;fill-rule:nonzero;stroke:none" />
  <path
     inkscape:connector-curvature="0"
     id="path920"
     d="m 8.7272457,26.444162 c 0.003,-3.5e-4 0.004,-4.7e-4 0.004,-4.7e-4 0,0 -0.003,3.5e-4 -0.004,4.7e-4 m 0.004,-4.7e-4 0.004,0.002 z m 0.004,0.002 c 0.003,-3.4e-4 0.003,0.003 0.003,0.003 0,0 -3.5e-4,-0.003 -0.003,-0.003 m 29.4030003,42.22021 c -3.45921,0.45783 -6.99607,0.37305 -10.52259,-0.26599 -8.68875,-1.57555 -16.31264,-6.38743 -21.4699003,-13.55238 -0.68101,-0.82097 -6.24538988,-7.94372 -4.79729,-19.89011 0.70207,-5.80091 2.30753,-9.55656 4.76951,-11.16534 1.57516,-1.02808 2.96322,-0.85162 3.46725,-0.73534 2.9194303,0.50913 4.1248103,3.89471 4.5224103,5.016 0.80639,2.26837 1.34134,5.10413 1.86007,7.84664 0.42811,2.26392 0.83187,4.40257 1.35213,6.0683 0.6085,1.94997 1.10756,2.33752 1.19462,2.39219 0.004,-4.6e-4 0.008,-8.8e-4 0.0112,-0.004 0.17329,-0.0292 0.55367,-0.43539 0.87468,-1.7608 0.37006,-1.52855 0.51225,-3.646 0.64802,-5.69448 0.14777,-2.20776 0.29932,-4.48999 0.74847,-6.30349 0.64377,-2.60825 1.91236,-4.05519 3.76824,-4.30082 2.2615,-0.29931 3.68215,1.3738 4.47428,2.82834 0.77926,1.43095 1.34629,3.27348 1.89566,5.05607 0.39716,1.29462 0.77298,2.51613 1.19457,3.48046 0.41893,0.95883 0.71438,1.2643 0.81939,1.35165 0.23048,-0.0385 0.35301,-0.11286 0.5051,-0.46401 0.24939,-0.57227 0.36199,-1.48659 0.48114,-2.45434 0.17816,-1.44863 0.38152,-3.08944 1.1551,-4.49617 0.98695,-1.79513 2.65901,-2.7971 4.97332,-2.97686 2.78061,-0.21616 3.71407,0.0263 6.48804,0.74546 1.64504,0.42667 4.13289,1.07275 8.27274,1.94794 4.08975,0.8643 6.8941,0.62163 7.89895,-0.68528 1.20455,-1.56305 0.10445,-5.02097 -0.61423,-6.45019 -0.0263,-0.0511 -0.0483,-0.10068 -0.0691,-0.15439 -1.85167,-4.76791 -4.89758,-9.02736 -8.81,-12.31747 -4.03093,-3.39124 -8.91907,-5.6839396 -14.13308,-6.6291696 -5.73874,-1.04126 -11.60648,-0.42429 -16.97173,1.78288 -5.22874,2.1501796 -9.74526,5.6953796 -13.0666103,10.2543896 -0.56817,0.78188 -1.66093,0.95376 -2.44115,0.38338 -0.78163,-0.56626 -0.95186,-1.66119 -0.38539,-2.44089 3.70179,-5.08242 8.7367503,-9.0349896 14.5619503,-11.4295896 5.98559,-2.46254 12.52908,-3.15141992 18.92603,-1.99092 5.81449,1.05459 11.26518,3.61159 15.76072,7.3949296 4.33971,3.65018 7.72288,8.36921 9.78895,13.65385 0.46383,0.94511 2.9833,6.49291 0.22417,10.07808 -1.9236,2.49925 -5.75669,3.1623 -11.39261,1.97115 -4.21609,-0.89235 -6.75024,-1.54982 -8.42742,-1.98391 -2.66316,-0.69101 -3.14309,-0.81633 -5.33968,-0.64436 -2.1985,0.17222 -2.54932,1.34583 -2.92953,4.41565 -0.14475,1.17165 -0.29399,2.38283 -0.74634,3.42194 -0.80322,1.84479 -2.24795,2.402 -3.31939,2.54381 -1.13267,0.14991 -2.75243,-0.18861 -4.04453,-2.6555 -0.67483,-1.28902 -1.19698,-2.9837 -1.70222,-4.62417 -0.49646,-1.61827 -1.01149,-3.28859 -1.62335,-4.41072 -0.2853,-0.52292 -0.6828,-1.06992 -0.94493,-1.03523 -0.20854,0.0276 -0.55825,0.56253 -0.832,1.67144 -0.37565,1.51565 -0.51684,3.64077 -0.65351,5.69716 -0.14713,2.19793 -0.29828,4.46842 -0.74067,6.28882 -0.62882,2.58875 -1.86276,4.06225 -3.66642,4.37883 -1.19445,0.21262 -2.34469,-0.18221 -3.23975,-1.10529 -0.61983,-0.63827 -1.143,-1.54632 -1.6017,-2.77633 -0.74148,-1.99857 -1.23481,-4.60816 -1.75798,-7.36955 -0.49359,-2.61152 -1.0029,-5.31246 -1.71912,-7.32604 -0.8347503,-2.35026 -1.5667203,-2.70308 -1.8428003,-2.74442 -0.0533,-0.006 -0.1057,-0.0192 -0.15796,-0.0316 -0.075,-0.008 -0.42531,-0.0215 -0.91196,0.34653 -0.83903,0.63279 -2.35553,2.58951 -3.08124,8.56487 -1.32404,10.92737 3.97653,17.18951 4.02941,17.25065 0.0344,0.0402 0.0693,0.0823 0.10048,0.12688 4.6249703,6.45278 11.4769703,10.78668 19.2920103,12.20337 6.58249,1.19435 13.2066,0.23197 19.1561,-2.78258 3.03224,-1.5363 5.78861,-3.58313 8.14169,-6.01462 2.26808,-2.36767 4.14485,-5.08849 5.54995,-8.04865 l 2.50373,-4.97754 c 0.37071,-0.87644 1.24365,-2.19643 2.12713,-1.84612 0.88374,0.3522 1.45345,1.8601 1.12163,2.75088 -0.33323,0.89484 -1.4759,3.57756 -1.88382,4.43752 l -0.29184,0.69275 c -0.0146,0.037 -0.031,0.0743 -0.0497,0.10976 -1.4935,2.95431 -4.10815,6.73965 -6.3959,9.13524 -0.86047,0.91207 -1.77204,1.7764 -2.73329,2.5889 -0.0647,0.0553 -0.13402,0.10532 -0.20409,0.14965 -1.93868,1.6057 -4.05341,2.99917 -6.30475,4.14009 -3.44821,1.74711 -7.09886,2.8766 -10.83932,3.37165"
     style="fill:#cc1e26;fill-opacity:1;fill-rule:nonzero;stroke:#cc1e26;stroke-width:2.21850014;stroke-miterlimit:4;stroke-dasharray:none;stroke-opacity:1"
     sodipodi:nodetypes="cccccccccccccccccccccccsccccccccccccccccccccccccccccccccccccccccccccccccccccccccccccccc"
     inkscape:export-xdpi="205.52657"
     inkscape:export-ydpi="205.52657" />
</svg>
